<svg id="Calque_1" data-name="Calque 1" xmlns="http://www.w3.org/2000/svg" viewBox="0 0 841.89 346.85"><defs><style>.cls-1{fill:#002750;}.cls-2{fill:#e73454;}</style></defs><path class="cls-1" d="M521.69,220.14c-22.64,0-40.9-6.29-46.13-9.32-3.18-1.85-3.48-5.11-3.48-10.93,0-.45.08-1.95.27-4.34l0-.07c.45-5.54.87-10.61,1.08-11.45.45-1.79,1.63-3.36,4.41-2.66,1.34.34,2.53,2,3.31,3.9,10.61,25.66,23.44,26.12,36.67,28.28l.11,0a72.79,72.79,0,0,0,8.65.51c12.18,0,34.52-7,34.52-25.83,0-18.15-19.72-27-40.6-34.66-23.49-8.38-46.4-17.46-46.4-42.13,0-20.92,19.4-39.19,54.7-40,19.6-.2,35.25,3.22,40,5.83,3.23,1.77,3.61,5,3.77,10.84,0,.45,0,3.16-.15,5.55l0,.08c-.3,5.54-.59,10.62-.78,11.47-.4,1.8-1.53,3.39-4.33,2.77-1.35-.3-2.73-1.9-3.41-3.81-5.71-15.85-12.34-22.24-20.28-25A47.33,47.33,0,0,0,528.92,77c-23.78,0-31.61,13.27-31.61,22.34,0,16.53,16.83,22.34,40,30,16.24,5.59,46.68,17,46.68,43.28,0,25.83-23.78,47.48-62.33,47.48"/><path class="cls-2" d="M308.41,248.38h18.41V251H311.28v8.69h13.91v2.62H311.28v8.92H327v2.62H308.41Zm11.72-6.95,2.87,1.31-4.18,3.38h-2.33Z"/><path class="cls-2" d="M338.19,261.18v-.07c0-7,5.14-13.17,12.78-13.17a13.44,13.44,0,0,1,9.49,3.38l-1.85,2.19a10.85,10.85,0,0,0-7.75-2.91c-5.64,0-9.68,4.76-9.68,10.44v.07c0,6.08,3.89,10.59,10.08,10.59a12.06,12.06,0,0,0,7.35-2.54v-6.34h-7.75v-2.58h10.51v10.15a15.42,15.42,0,0,1-10.22,3.89c-8,0-13-5.82-13-13.1"/><rect class="cls-2" x="374.64" y="248.38" width="2.88" height="25.47"/><polygon class="cls-2" points="391.51 248.38 409.92 248.38 409.92 251 394.38 251 394.38 259.69 408.28 259.69 408.28 262.31 394.38 262.31 394.38 271.23 410.1 271.23 410.1 273.85 391.51 273.85 391.51 248.38"/><rect class="cls-2" x="442.31" y="248.38" width="2.88" height="25.47"/><polygon class="cls-2" points="459.19 248.38 462.1 248.38 471.38 262.28 480.65 248.38 483.57 248.38 483.57 273.85 480.69 273.85 480.69 253.22 471.41 266.86 471.27 266.86 461.99 253.25 461.99 273.85 459.19 273.85 459.19 248.38"/><polygon class="cls-2" points="497.3 248.38 500.21 248.38 509.49 262.28 518.77 248.38 521.68 248.38 521.68 273.85 518.8 273.85 518.8 253.22 509.53 266.86 509.38 266.86 500.1 253.25 500.1 273.85 497.3 273.85 497.3 248.38"/><path class="cls-2" d="M534.28,261.18v-.07a13,13,0,1,1,26-.07v.07a13,13,0,1,1-26,.07m23,0v-.07c0-5.78-4.22-10.51-10-10.51s-10,4.65-10,10.44v.07c0,5.79,4.22,10.52,10,10.52s10-4.66,10-10.45"/><path class="cls-2" d="M572.87,248.38h10.84a9.35,9.35,0,0,1,6.66,2.25,5.64,5.64,0,0,1,1.64,4.08v.07a6.17,6.17,0,0,1-4,5.9c3,.91,5.46,2.65,5.46,6.14v.08c0,4.36-3.68,7-9.24,7H572.87Zm10.37,11.35c3.46,0,5.86-1.56,5.86-4.55v-.07c0-2.51-2-4.15-5.64-4.15h-7.75v8.77Zm1,11.53c3.85,0,6.26-1.71,6.26-4.54v-.08c0-2.76-2.33-4.36-6.77-4.36h-8v9Z"/><rect class="cls-2" x="605.92" y="248.38" width="2.88" height="25.47"/><polygon class="cls-2" points="622.8 248.38 625.67 248.38 625.67 271.19 640.01 271.19 640.01 273.85 622.8 273.85 622.8 248.38"/><rect class="cls-2" x="652.11" y="248.38" width="2.88" height="25.47"/><path class="cls-2" d="M669,248.38H687.4V251H671.86v8.69h13.9v2.62h-13.9v8.92h15.72v2.62H669Zm10.44-2.26H677.1l-4.18-3.38,2.84-1.31Z"/><path class="cls-2" d="M699.9,248.38h11a10,10,0,0,1,7.24,2.54,7,7,0,0,1,2,5V256c0,4.22-2.9,6.69-6.91,7.42L721,273.85h-3.52l-7.39-9.9h-7.28v9.9H699.9Zm10.7,13c3.82,0,6.55-2,6.55-5.24v-.07c0-3.13-2.41-5-6.52-5h-7.86v10.34Z"/><polygon class="cls-2" points="732.74 248.38 751.15 248.38 751.15 251 735.62 251 735.62 259.69 749.51 259.69 749.51 262.31 735.62 262.31 735.62 271.23 751.33 271.23 751.33 273.85 732.74 273.85 732.74 248.38"/><path class="cls-1" d="M159,141c-9.21,0-11.51-.19-12-2.46v-4.31c0-.54,0-1.11,0-1.75V93.73c0-1,0-3,0-3,.08-6.6,1.08-11,9.58-11.51.48,0,.95,0,1.48,0,35.6,0,37,24.66,37,33C195.1,141,169.33,141,159,141m88.08,69.36c-8-.93-9.25-4.93-15-13l-27.85-39.62c-6.6-9.69-10.25-12.29-14-14.13,9.77-1.61,37.3-7.68,37.3-34.64,0-8.06-1.65-36.17-52.47-36.17-7.73,0-37.28.74-48.89.89-13-.15-19.29-.89-21.86-.89-2.3,0-6,0-6,3.46,0,3.22,2,3.33,8.06,3.68,10.8.63,9.78,6.92,9.78,16.36v97.46c0,9.45,1,15.74-9.78,16.36-6,.35-8.06.46-8.06,3.69,0,3.45,3.73,3.45,6,3.45,2.88,0,10.38-.92,26.74-.92h1c16.36,0,23.87.92,26.74.92,2.3,0,6,0,6-3.45,0-3.23-2-3.34-8-3.69-10.81-.62-9.79-6.92-9.79-16.36v-.19l0,.19V152.25c0-3.91.57-5.29,5.45-5.29,12.92,0,11.95.92,18.26,10.83l34.75,52.53c3.15,4.83,4.3,6.91,9.47,6.91,2.58,0,13.21-.92,15.5-.92,4.31,0,17.05.92,20.78.92,2,0,5.3-.23,5.3-2.77,0-3,0-3.22-9.49-4.14"/><path class="cls-1" d="M646.51,107.41s28.11,57.35,29.61,60.83l11.68,27.64c.43,1,1.9,4.38,1.9,6.68,0,3.46-1.24,7-8.3,7.45-5.44.47-8.27,1.15-8.27,4.15,0,3.22,2,3.22,4.74,3.22.82,0,12.75-.91,29.31-.91,4.61,0,25.68.91,30.31.91,1.62,0,4.55,0,4.55-3s-1.3-3.45-5.91-3.91c-11.14-1.39-12.37-6.46-21.07-24.2L672.67,98.73c-2.16-4.38-5.15-10.83-7.86-17.28-4.09-9.44-4.9-11.06-7.88-11.06-2.72,0-2.72.24-12.76,22.58-17.94,39.86-41.84,93.78-50.54,108.06-5.16,8.06-5.6,8.29-14.56,9-4.34.47-6.44.93-6.44,3.92,0,3.45,1.83,3.45,3.47,3.45,3.52,0,17.53-.91,20.52-.91,7.88,0,22.09.91,24.81.91,6.25,0,8.36,0,8.36-3.22,0-2.77-2.11-3.46-9.17-3.68-6.25-.23-11.22-.7-11.22-6.46,0-2.76,2.43-9,2.43-9.67l9.24-24.66c1.08-3,24.45-59.9,24.45-59.9Z"/><path class="cls-2" d="M745.52,149.62s-27.79,17.63-69.51,7.66-71.85-15.74-107.41,16c17.2-8.73,30.69-10.61,55-7.33s51.12,10.38,64.67,10.45c34.31.18,57.23-26.8,57.23-26.8"/><path class="cls-2" d="M275.57,248.38h10.95a10,10,0,0,1,7.24,2.54,7,7,0,0,1,2,5V256c0,4.22-2.91,6.69-6.92,7.42l7.83,10.41h-3.53l-7.39-9.9h-7.27v9.9h-2.88Zm10.7,13c3.82,0,6.55-2,6.55-5.24v-.07c0-3.13-2.4-5-6.52-5h-7.85v10.34Z"/><path class="cls-1" d="M309.16,96.27c0-9.44-1-15.73,9.79-16.36,6-.35,8.05-.46,8.05-3.68,0-3.46-3.73-3.46-6-3.46-2.87,0-10.38.92-26.74.92h-1c-16.37,0-23.87-.92-26.74-.92-2.3,0-6,0-6,3.46,0,3.23,2,3.33,8.06,3.68,10.8.63,9.78,6.92,9.78,16.36v97.46c0,9.45,1,15.74-9.78,16.36-6,.35-8.06.46-8.06,3.69,0,3.45,3.74,3.45,6,3.45,2.87,0,10.37-.92,26.74-.92h1c16.36,0,23.87.92,26.74.92,2.3,0,6,0,6-3.45,0-3.23-2-3.34-8.05-3.69-10.8-.62-9.79-6.91-9.79-16.36V96.27Z"/><path class="cls-1" d="M391.19,216.31H374.93c-16.36,0-23.87.92-26.74.92-2.3,0-6,0-6-3.45,0-3.23,2-3.34,8-3.69,10.8-.62,9.79-6.91,9.79-16.36V96.27c0-9.44,1-15.73-9.79-16.36-6-.35-8-.45-8-3.68,0-3.46,3.73-3.46,6-3.46,2.87,0,10.38.92,26.74.92h1c16.37,0,23.87-.92,26.75-.92,2.29,0,6,0,6,3.46,0,3.23-2,3.33-8.06,3.68-10.8.63-9.78,6.92-9.78,16.36v91.24c0,14.52,5,22.34,22.81,22.34,13.79,0,29.76-2.8,46.31-25.09,1.21-1.62,2.78-3,4.17-3,2.86,0,3.62,1.8,3.62,3.65s-3.73,22.34-4,26.26c-.57,4.38-2,5.53-7.18,5.53-2.58,0,1-.92-64.14-.92Z"/></svg>